<?xml version="1.0"?>
<svg width="58" height="55" xmlns="http://www.w3.org/2000/svg" xmlns:svg="http://www.w3.org/2000/svg">
 <g class="layer">
  <title>Layer 1</title>
  <path clip-rule="evenodd" d="m32.51,20.49l23.23,-8.65c0.63,-0.18 1.17,0.18 1.26,0.8l0,14.9c0,0.36 -0.27,0.71 -0.63,0.8l-12.29,4.64c-0.72,0.27 -0.81,1.25 -0.09,1.6l12.56,6.25c0.27,0.18 0.45,0.44 0.45,0.8l0,3.93c0,0.35 -0.27,0.71 -0.63,0.8l-3.95,1.43c-0.18,0.08 -0.44,0 -0.71,-0.09l-11.31,-6.51c-0.63,-0.27 -1.34,0.08 -1.34,0.8l0,10.08c0,0.35 -0.27,0.71 -0.63,0.8l-5.39,2.05c-0.53,0.27 -1.16,-0.18 -1.16,-0.8l0,-32.83c0,-0.35 0.27,-0.71 0.63,-0.8zm7.71,7.32l8.88,-3.22c0.36,-0.08 0.54,-0.44 0.54,-0.8l0,-0.98c0,-0.62 -0.63,-0.98 -1.16,-0.8l-8.89,3.21c-0.27,0.09 -0.53,0.45 -0.53,0.8l0,0.98c0,0.63 0.62,0.98 1.16,0.81z" fill="#ffffff" fill-rule="evenodd" id="svg_9"/>
  <path d="m55.03,8.9l-23.69,-8.83c-0.18,-0.09 -0.45,-0.09 -0.63,0l-23.42,8.56c-0.8,0.27 -0.62,0.89 -0.18,1.07l14.54,5.44c0.18,0.09 0.36,0.09 0.63,0l6.01,-2.23c0.27,-0.09 0.36,-0.45 0.09,-0.53l-8.26,-3.22c-0.35,-0.08 -0.8,-0.53 0.09,-0.89l10.23,-3.74c0.63,-0.27 0.99,-0.09 1.17,0l10.68,3.92c0.98,0.36 1.52,0.54 -0.36,1.25l-19.29,7.22c-0.09,0 -0.18,0.09 -0.27,0.18c-0.09,0.09 -0.27,0.27 -0.27,0.45l0,25.33c0,0.36 -0.36,0.62 -0.72,0.45l-1.44,-0.54c-0.35,-0.09 -0.53,-0.45 -0.53,-0.8l0,-24.89c0,-0.35 -0.27,-0.71 -0.63,-0.8l-5.56,-2.05c-0.54,-0.18 -1.17,0.27 -1.17,0.8l0,24.17c0,0.36 -0.36,0.63 -0.72,0.54l-1.34,-0.45c-0.36,-0.09 -0.63,-0.44 -0.63,-0.8l0,-25.24c0,-0.36 -0.27,-0.72 -0.63,-0.81l-5.56,-1.96c-0.54,-0.18 -1.17,0.27 -1.17,0.81l0,33.18c0,0.35 0.27,0.71 0.63,0.8l25.75,9.54c0.54,0.18 1.16,-0.27 1.16,-0.8l0,-33.72c0,-0.35 0.27,-0.71 0.54,-0.8l25.04,-9.36c0.8,-0.36 0.62,-0.99 -0.09,-1.25z" fill="#ffffff" id="svg_10"/>
  <path d="m31.52,6.04l6.64,2.5c0.27,0.09 0.27,0.45 0,0.54l-6.64,2.49c-0.36,0.18 -0.81,0.18 -1.17,0l-6.64,-2.49c-0.27,-0.09 -0.27,-0.45 0,-0.54l6.64,-2.41c0.45,-0.18 0.9,-0.18 1.17,-0.09z" fill="#ffffff" id="svg_11"/>
 </g>
</svg>